<svg width="325" height="37" viewBox="0 0 325 37" fill="none" xmlns="http://www.w3.org/2000/svg">
<path d="M13.28 22.72C13.28 24.72 13.96 25.72 15.32 25.72C15.5333 25.72 15.8533 25.6933 16.28 25.64C16.7067 25.56 17.0267 25.52 17.24 25.52C17.5867 25.52 17.88 25.6533 18.12 25.92C18.3867 26.16 18.52 26.4533 18.52 26.8C18.52 27.7333 17.92 28.2 16.72 28.2C16.6667 28.2 16.5867 28.2 16.48 28.2C16.3467 28.1733 16.2533 28.16 16.2 28.16L14.24 27.88C13.4933 27.7733 12.6533 27.72 11.72 27.72C10.7067 27.72 9.81333 27.7733 9.04 27.88L7.04 28.16C6.96 28.16 6.86667 28.1733 6.76 28.2C6.62667 28.2 6.53333 28.2 6.48 28.2C5.30667 28.2 4.72 27.7333 4.72 26.8C4.72 25.9467 5.14667 25.52 6 25.52C6.21333 25.52 6.53333 25.56 6.96 25.64C7.38667 25.6933 7.70667 25.72 7.92 25.72C9.25333 25.72 9.92 24.72 9.92 22.72V19.92L9.96 16.4V13L9.92 6.48C9.92 4.58667 8.94667 3.64 7 3.64H5.76C3.84 3.64 2.88 4.57333 2.88 6.44C2.88 7.10667 2.89333 7.56 2.92 7.8L3.08 9.28C3.10667 9.52 3.12 9.85333 3.12 10.28C3.12 11.96 2.6 12.8 1.56 12.8C0.573333 12.8 0.08 12.1867 0.08 10.96C0.08 10.6133 0.106667 10.0133 0.16 9.16C0.24 7.88 0.28 7.06667 0.28 6.72C0.28 6.05333 0.253333 5.36 0.2 4.64C0.0933334 3.22667 0.04 2.62667 0.04 2.84C0.04 1.72 0.546667 1.16 1.56 1.16C1.93333 1.16 2.8 1.2 4.16 1.28C4.29333 1.28 5.38667 1.30667 7.44 1.36L12 1.44C12.5333 1.44 13.96 1.41333 16.28 1.36C16.7867 1.36 17.6533 1.32 18.88 1.24C19.9733 1.16 20.8267 1.12 21.44 1.12C22.7733 1.12 23.44 1.66666 23.44 2.76V2.84C23.44 3.10667 23.4 3.6 23.32 4.32C23.2667 5.04 23.2 5.81333 23.12 6.64V7.08C23.12 7.48 23.16 8.10667 23.24 8.96C23.3467 10.08 23.4 10.7733 23.4 11.04C23.4 12.1333 22.88 12.68 21.84 12.68C20.8267 12.68 20.32 12.0133 20.32 10.68C20.32 10.2 20.36 9.49333 20.44 8.56C20.52 7.6 20.56 6.88 20.56 6.4C20.56 4.56 19.5067 3.64 17.4 3.64H16.28C15.2933 3.64 14.5867 3.85333 14.16 4.28C13.7333 4.68 13.4933 5.36 13.44 6.32L13.32 9.12L13.28 22.72ZM32.3088 2.24L32.1488 10C33.2154 8.98667 34.1888 8.29333 35.0688 7.92C35.9488 7.52 36.9888 7.32 38.1888 7.32C40.4821 7.32 42.3221 7.97333 43.7088 9.28C45.0954 10.5867 45.7888 12.3067 45.7888 14.44V21.12C45.7888 22.6933 45.8021 23.56 45.8288 23.72C45.9354 25.0533 46.2821 25.72 46.8688 25.72C47.0821 25.72 47.3888 25.6667 47.7888 25.56C47.9488 25.5333 48.1621 25.52 48.4288 25.52C49.4154 25.52 49.9088 25.96 49.9088 26.84C49.9088 27.72 49.2688 28.16 47.9887 28.16C47.6421 28.16 47.1354 28.12 46.4688 28.04C45.3488 27.9067 44.4421 27.84 43.7488 27.84C43.0554 27.84 42.5221 27.8667 42.1488 27.92C41.0288 28.08 40.3354 28.16 40.0688 28.16C39.5888 28.16 39.1888 28.0267 38.8688 27.76C38.5488 27.4667 38.3888 27.1067 38.3888 26.68C38.3888 26.3333 38.5221 26.04 38.7888 25.8C39.0821 25.56 39.4154 25.44 39.7888 25.44C40.0821 25.44 40.4288 25.5067 40.8288 25.64C41.0688 25.72 41.2954 25.76 41.5088 25.76C42.3088 25.76 42.7221 24.8933 42.7488 23.16C42.7488 22.84 42.7621 22.2133 42.7888 21.28L42.8288 19.56V17.4C42.8288 14.68 42.5621 12.8533 42.0288 11.92C41.2554 10.5333 39.8954 9.84 37.9488 9.84C35.8421 9.84 34.3088 10.56 33.3488 12C32.6821 12.9867 32.3354 14.5733 32.3088 16.76L32.2688 19.64C32.2688 19.8 32.2554 20.0667 32.2288 20.44C32.2288 20.7867 32.2288 21.04 32.2288 21.2C32.2288 22.72 32.2421 23.6 32.2688 23.84C32.4021 25.1467 32.7888 25.8 33.4288 25.8C33.6421 25.8 33.9354 25.76 34.3088 25.68C34.7088 25.5733 35.0021 25.52 35.1888 25.52C36.0421 25.52 36.4688 25.9333 36.4688 26.76C36.4688 27.6933 35.8821 28.16 34.7088 28.16C34.3354 28.16 33.7754 28.12 33.0288 28.04C32.0154 27.9333 31.1488 27.88 30.4288 27.88C29.9754 27.88 29.3488 27.92 28.5488 28C27.4821 28.1067 26.8021 28.16 26.5088 28.16C25.4154 28.16 24.8688 27.68 24.8688 26.72C24.8688 25.92 25.3754 25.52 26.3888 25.52C26.7354 25.52 26.9888 25.5467 27.1488 25.6C27.6021 25.68 27.9221 25.72 28.1088 25.72C28.5354 25.72 28.8154 25.32 28.9488 24.52C29.1088 23.6933 29.2021 22.0267 29.2288 19.52L29.2688 12.36C29.2688 8.36 29.1888 5.84 29.0288 4.8C28.8688 3.73333 28.4954 3.2 27.9088 3.2C27.7221 3.2 27.4421 3.24 27.0688 3.32C26.6954 3.4 26.4021 3.44 26.1888 3.44C25.2821 3.44 24.8288 3.01333 24.8288 2.16C24.8288 1.78667 24.9888 1.46667 25.3088 1.2C25.6288 0.933333 26.0154 0.8 26.4688 0.8C26.6021 0.8 27.0554 0.839999 27.8288 0.919998C28.3354 0.973332 28.8821 1 29.4688 1C29.7088 1 30.0421 0.973332 30.4688 0.919998C30.8954 0.866666 31.2021 0.839999 31.3888 0.839999C32.0021 0.839999 32.3088 1.28 32.3088 2.16V2.24ZM69.6575 16.24C69.6575 17.2533 69.5908 17.88 69.4575 18.12C69.3242 18.3333 68.9375 18.44 68.2975 18.44H55.5775C55.2308 18.44 55.0042 18.4933 54.8975 18.6C54.7908 18.68 54.7375 18.8267 54.7375 19.04C54.7375 21.04 55.3375 22.7067 56.5375 24.04C57.7375 25.3733 59.2308 26.04 61.0175 26.04C62.1908 26.04 63.2575 25.72 64.2175 25.08C65.2042 24.44 65.8442 23.6267 66.1375 22.64L66.4975 21.48C66.6842 20.84 67.1242 20.52 67.8175 20.52C68.8042 20.52 69.2975 21.0267 69.2975 22.04C69.2975 23.7733 68.4175 25.32 66.6575 26.68C64.8975 28.0133 62.8975 28.68 60.6575 28.68C57.8575 28.68 55.6308 27.7467 53.9775 25.88C52.3242 23.9867 51.4975 21.4533 51.4975 18.28C51.4975 15.0267 52.3775 12.3867 54.1375 10.36C55.8975 8.33333 58.1908 7.32 61.0175 7.32C63.5242 7.32 65.5908 8.16 67.2175 9.84C68.8442 11.52 69.6575 13.6533 69.6575 16.24ZM55.1375 15.2C55.1375 15.5733 55.4308 15.76 56.0175 15.76H65.5775C66.1375 15.76 66.4175 15.5733 66.4175 15.2C66.4175 13.7867 65.8842 12.56 64.8175 11.52C63.7508 10.48 62.4975 9.96 61.0575 9.96C59.5642 9.96 58.2042 10.5067 56.9775 11.6C55.7508 12.6667 55.1375 13.8667 55.1375 15.2ZM94.1103 28.88C90.5636 28.88 87.7503 27.6 85.6703 25.04C83.617 22.48 82.5903 19.0133 82.5903 14.64C82.5903 10.2133 83.6303 6.74667 85.7103 4.24C87.7903 1.70667 90.657 0.44 94.3103 0.44C97.8036 0.44 100.577 1.66667 102.63 4.12C104.71 6.57333 105.75 9.89333 105.75 14.08C105.75 18.6133 104.697 22.2133 102.59 24.88C100.51 27.5467 97.6836 28.88 94.1103 28.88ZM94.1903 3.32C91.6303 3.32 89.6436 4.30666 88.2303 6.28C86.817 8.25333 86.1103 11.0267 86.1103 14.6C86.1103 18.2267 86.817 21.04 88.2303 23.04C89.6436 25.0133 91.617 26 94.1503 26C96.6303 26 98.5903 24.9733 100.03 22.92C101.497 20.84 102.23 18.0267 102.23 14.48C102.23 10.9067 101.537 8.16 100.15 6.24C98.7636 4.29333 96.777 3.32 94.1903 3.32ZM120.681 4.36C120.681 3.98667 120.815 3.65333 121.081 3.36C120.628 2.93333 119.961 2.72 119.081 2.72C117.935 2.72 117.028 3.09333 116.361 3.84C115.721 4.56 115.401 5.57333 115.401 6.88V7.6C115.401 7.94667 115.575 8.12 115.921 8.12H119.041C119.921 8.12 120.361 8.6 120.361 9.56C120.361 10.52 119.921 11 119.041 11H116.081C115.628 11 115.401 11.24 115.401 11.72V22.92C115.401 23.9067 115.415 24.48 115.441 24.64C115.575 25.36 115.908 25.72 116.441 25.72C116.575 25.72 116.908 25.6533 117.441 25.52C117.815 25.4667 118.081 25.44 118.241 25.44C119.148 25.44 119.601 25.88 119.601 26.76C119.601 27.6933 119.055 28.16 117.961 28.16C117.508 28.16 116.815 28.1067 115.881 28C114.975 27.8933 114.295 27.84 113.841 27.84C113.041 27.84 112.321 27.88 111.681 27.96C110.641 28.0933 109.975 28.16 109.681 28.16C108.535 28.16 107.961 27.6933 107.961 26.76C107.961 26.4133 108.095 26.1067 108.361 25.84C108.655 25.5733 108.988 25.44 109.361 25.44C109.628 25.44 109.921 25.4933 110.241 25.6C110.588 25.68 110.895 25.72 111.161 25.72C111.668 25.72 111.988 25.4 112.121 24.76C112.255 24.12 112.335 22.5733 112.361 20.12L112.401 11.72C112.401 11.24 112.161 11 111.681 11H109.681C108.748 11 108.281 10.5067 108.281 9.52C108.281 8.58667 108.761 8.12 109.721 8.12H112.001C112.348 8.12 112.521 7.94667 112.521 7.6V6.88C112.521 4.77333 113.081 3.16 114.201 2.04C115.321 0.919998 116.908 0.359998 118.961 0.359998C120.641 0.359998 121.988 0.706665 123.001 1.4C124.015 2.06667 124.521 2.97333 124.521 4.12C124.521 4.70667 124.335 5.18666 123.961 5.56C123.588 5.90667 123.121 6.08 122.561 6.08C122.028 6.08 121.575 5.92 121.201 5.6C120.855 5.25333 120.681 4.84 120.681 4.36ZM136.789 4.8C136.789 4.45333 136.883 4.10667 137.069 3.76C136.349 3.06667 135.256 2.72 133.789 2.72C130.749 2.72 129.229 4.24 129.229 7.28C129.229 7.92 129.483 8.24 129.989 8.24H135.829C137.323 8.24 138.389 8.2 139.029 8.12C139.269 8.06667 139.536 8.04 139.829 8.04C140.576 8.04 140.949 8.53333 140.949 9.52C140.949 9.62667 140.936 9.72 140.909 9.8C140.883 10.3067 140.869 10.7467 140.869 11.12C140.869 10.9867 140.856 11.6267 140.829 13.04L140.789 15.16V21.64C140.789 23.16 140.803 23.9867 140.829 24.12C140.936 25.2133 141.309 25.76 141.949 25.76C142.243 25.76 142.549 25.72 142.869 25.64C143.216 25.5333 143.496 25.48 143.709 25.48C144.563 25.48 144.989 25.92 144.989 26.8C144.989 27.7067 144.456 28.16 143.389 28.16C143.149 28.16 142.376 28.0933 141.069 27.96C140.296 27.88 139.509 27.84 138.709 27.84C138.043 27.84 137.416 27.88 136.829 27.96C135.843 28.0933 135.189 28.16 134.869 28.16C134.069 28.16 133.669 27.7333 133.669 26.88C133.669 25.9467 134.096 25.48 134.949 25.48C135.083 25.48 135.323 25.52 135.669 25.6C136.016 25.68 136.323 25.72 136.589 25.72C137.229 25.72 137.616 25.0933 137.749 23.84C137.776 23.7067 137.789 22.8667 137.789 21.32V15.88C137.789 13.2933 137.643 11.8133 137.349 11.44C137.056 11.0667 136.123 10.88 134.549 10.88H130.549C129.909 10.88 129.536 10.96 129.429 11.12C129.323 11.28 129.256 11.4267 129.229 11.56C129.229 11.6667 129.229 11.9733 129.229 12.48V18.4C129.229 19.5467 129.229 20.12 129.229 20.12C129.229 20.6267 129.243 21.2267 129.269 21.92C129.296 22.5067 129.309 22.88 129.309 23.04C129.309 24.08 129.309 24.6267 129.309 24.68C129.416 25.3733 129.723 25.72 130.229 25.72C130.416 25.72 130.669 25.68 130.989 25.6C131.336 25.52 131.589 25.48 131.749 25.48C132.629 25.48 133.069 25.9333 133.069 26.84C133.069 27.72 132.536 28.16 131.469 28.16C131.229 28.16 130.656 28.0933 129.749 27.96C129.189 27.88 128.509 27.84 127.709 27.84C126.669 27.84 125.949 27.8667 125.549 27.92L123.709 28.16H123.349C122.309 28.16 121.789 27.72 121.789 26.84C121.789 25.8533 122.296 25.36 123.309 25.36C123.443 25.36 123.669 25.3867 123.989 25.44C124.416 25.5733 124.763 25.64 125.029 25.64C125.696 25.64 126.056 24.7467 126.109 22.96C126.109 22.6133 126.123 21.7067 126.149 20.24C126.149 19.3333 126.163 18.3867 126.189 17.4C126.216 16.5467 126.229 16.08 126.229 16V11.84C126.229 11.4133 126.189 11.1467 126.109 11.04C126.029 10.9333 125.803 10.88 125.429 10.88H123.589C122.629 10.88 122.149 10.44 122.149 9.56C122.149 8.68 122.629 8.24 123.589 8.24H125.309C125.763 8.24 126.043 8.2 126.149 8.12C126.283 8.04 126.349 7.84 126.349 7.52C126.483 2.74667 129.003 0.359998 133.909 0.359998C135.936 0.359998 137.603 0.759999 138.909 1.56C140.216 2.33333 140.869 3.34667 140.869 4.6C140.869 5.96 140.189 6.64 138.829 6.64C138.243 6.64 137.749 6.46666 137.349 6.12C136.976 5.77333 136.789 5.33333 136.789 4.8ZM158.294 14.8C158.294 13.7333 158.96 13.12 160.294 12.96C160.16 12.0267 159.707 11.2933 158.934 10.76C158.187 10.2267 157.214 9.96 156.014 9.96C154.174 9.96 152.694 10.6933 151.574 12.16C150.454 13.6267 149.894 15.5733 149.894 18C149.894 20.5067 150.414 22.48 151.454 23.92C152.52 25.3333 153.987 26.04 155.854 26.04C157.027 26.04 158.04 25.7067 158.894 25.04C159.774 24.3733 160.374 23.4533 160.694 22.28C160.96 21.3467 161.12 20.8133 161.174 20.68C161.467 20.1467 161.894 19.88 162.454 19.88C162.907 19.88 163.28 20.0267 163.574 20.32C163.867 20.6133 164.014 20.9867 164.014 21.44C164.014 22.1067 163.8 22.9067 163.374 23.84C162.947 24.7733 162.44 25.5467 161.854 26.16C160.28 27.84 158.24 28.68 155.734 28.68C153.014 28.68 150.814 27.72 149.134 25.8C147.48 23.88 146.654 21.36 146.654 18.24C146.654 14.9333 147.507 12.2933 149.214 10.32C150.947 8.32 153.24 7.32 156.094 7.32C158.227 7.32 160 7.90667 161.414 9.08C162.827 10.2267 163.534 11.6933 163.534 13.48C163.534 14.4667 163.254 15.28 162.694 15.92C162.16 16.56 161.467 16.88 160.614 16.88C159.947 16.88 159.387 16.68 158.934 16.28C158.507 15.88 158.294 15.3867 158.294 14.8ZM185.204 16.24C185.204 17.2533 185.138 17.88 185.004 18.12C184.871 18.3333 184.484 18.44 183.844 18.44H171.124C170.778 18.44 170.551 18.4933 170.444 18.6C170.338 18.68 170.284 18.8267 170.284 19.04C170.284 21.04 170.884 22.7067 172.084 24.04C173.284 25.3733 174.778 26.04 176.564 26.04C177.738 26.04 178.804 25.72 179.764 25.08C180.751 24.44 181.391 23.6267 181.684 22.64L182.044 21.48C182.231 20.84 182.671 20.52 183.364 20.52C184.351 20.52 184.844 21.0267 184.844 22.04C184.844 23.7733 183.964 25.32 182.204 26.68C180.444 28.0133 178.444 28.68 176.204 28.68C173.404 28.68 171.178 27.7467 169.524 25.88C167.871 23.9867 167.044 21.4533 167.044 18.28C167.044 15.0267 167.924 12.3867 169.684 10.36C171.444 8.33333 173.738 7.32 176.564 7.32C179.071 7.32 181.138 8.16 182.764 9.84C184.391 11.52 185.204 13.6533 185.204 16.24ZM170.684 15.2C170.684 15.5733 170.978 15.76 171.564 15.76H181.124C181.684 15.76 181.964 15.5733 181.964 15.2C181.964 13.7867 181.431 12.56 180.364 11.52C179.298 10.48 178.044 9.96 176.604 9.96C175.111 9.96 173.751 10.5067 172.524 11.6C171.298 12.6667 170.684 13.8667 170.684 15.2ZM221.297 14.4C221.297 20.64 219.151 25.08 214.857 27.72V30.76C214.857 32.6533 215.631 33.6 217.177 33.6C218.057 33.6 218.657 33.3733 218.977 32.92C219.191 32.6 219.324 31.9867 219.377 31.08C219.431 29.8267 219.911 29.2 220.817 29.2C221.857 29.2 222.377 29.8533 222.377 31.16C222.377 32.6267 221.897 33.8 220.937 34.68C220.004 35.5867 218.777 36.04 217.257 36.04C213.897 36.04 212.217 34.4933 212.217 31.4V28.6C211.391 28.7867 210.564 28.88 209.737 28.88C206.191 28.88 203.364 27.6133 201.257 25.08C199.177 22.5467 198.137 19.1333 198.137 14.84C198.137 10.36 199.177 6.84 201.257 4.28C203.337 1.72 206.204 0.44 209.857 0.44C213.377 0.44 216.164 1.69333 218.217 4.2C220.271 6.70667 221.297 10.1067 221.297 14.4ZM214.897 22.36V24.48C215.671 23.52 216.231 22.6 216.577 21.72C217.377 19.5867 217.777 17.12 217.777 14.32C217.777 10.8267 217.084 8.12 215.697 6.2C214.311 4.28 212.364 3.32 209.857 3.32C207.244 3.32 205.204 4.32 203.737 6.32C202.271 8.32 201.537 11.12 201.537 14.72C201.537 19.7333 202.764 23.2133 205.217 25.16C204.497 23.9867 204.137 22.8667 204.137 21.8C204.137 20.4933 204.671 19.4 205.737 18.52C206.831 17.6133 208.164 17.16 209.737 17.16C211.364 17.16 212.631 17.6267 213.537 18.56C214.444 19.4667 214.897 20.7333 214.897 22.36ZM209.777 26.28C210.444 26.28 211.271 26.1467 212.257 25.88V22.8C212.257 20.6933 211.364 19.64 209.577 19.64C208.617 19.64 207.831 19.9333 207.217 20.52C206.604 21.1067 206.297 21.8667 206.297 22.8C206.297 23.84 206.617 24.68 207.257 25.32C207.897 25.96 208.737 26.28 209.777 26.28ZM240.708 27V25.76C239.295 27.7067 237.201 28.68 234.428 28.68C231.281 28.68 229.095 27.7067 227.868 25.76C227.335 24.9067 227.041 23.9067 226.988 22.76C226.961 22.2 226.948 21.0267 226.948 19.24V15.92C226.948 12.2667 226.561 10.44 225.788 10.44C225.628 10.44 225.375 10.48 225.028 10.56C224.681 10.6133 224.415 10.64 224.228 10.64C223.295 10.64 222.828 10.2 222.828 9.32C222.828 8.46667 223.401 8.04 224.548 8.04C224.815 8.04 225.201 8.06667 225.708 8.12C226.241 8.17333 226.641 8.2 226.908 8.2C227.148 8.2 227.561 8.16 228.148 8.08C228.548 8.02667 228.775 8 228.828 8C229.655 8 230.068 8.50667 230.068 9.52V10.36L230.028 12.96L229.908 15.92V18.52C229.908 20.84 230.095 22.5067 230.468 23.52C231.081 25.2 232.548 26.04 234.868 26.04C236.015 26.04 237.028 25.7867 237.908 25.28C238.788 24.7467 239.401 24.0533 239.748 23.2C240.175 22.16 240.388 20.1867 240.388 17.28V15.08C240.388 13.48 240.388 12.6133 240.388 12.48C240.255 11.2 239.908 10.56 239.348 10.56C239.055 10.56 238.815 10.5867 238.628 10.64H238.148C237.215 10.64 236.748 10.2267 236.748 9.4C236.748 8.46667 237.268 8 238.308 8C238.548 8 238.908 8.02667 239.388 8.08C239.895 8.13333 240.268 8.16 240.508 8.16C240.721 8.16 241.041 8.14667 241.468 8.12C241.895 8.06667 242.215 8.04 242.428 8.04C243.228 8.04 243.628 8.46667 243.628 9.32C243.628 9.69333 243.601 9.98667 243.548 10.2C243.415 11.2133 243.348 12.7067 243.348 14.68V20.84C243.348 22.4667 243.361 23.3733 243.388 23.56C243.521 24.9733 243.895 25.68 244.508 25.68C244.695 25.68 244.961 25.6533 245.308 25.6C245.655 25.52 245.921 25.48 246.108 25.48C247.015 25.48 247.468 25.92 247.468 26.8C247.468 27.7067 246.908 28.16 245.788 28.16C245.548 28.16 245.201 28.1333 244.748 28.08C244.081 28 243.668 27.96 243.508 27.96C243.428 27.96 243.148 27.9867 242.668 28.04C242.348 28.12 242.068 28.16 241.828 28.16C241.081 28.16 240.708 27.7733 240.708 27ZM258.354 28.68C255.554 28.68 253.314 27.72 251.634 25.8C249.954 23.8533 249.114 21.2533 249.114 18C249.114 14.7467 249.954 12.16 251.634 10.24C253.34 8.29333 255.62 7.32 258.474 7.32C261.38 7.32 263.674 8.26667 265.354 10.16C267.034 12.0533 267.874 14.6267 267.874 17.88C267.874 21.1333 267.007 23.7467 265.274 25.72C263.54 27.6933 261.234 28.68 258.354 28.68ZM258.554 9.96C256.687 9.96 255.22 10.6133 254.154 11.92C253.087 13.2267 252.5 15.08 252.394 17.48C252.394 17.48 252.394 17.6533 252.394 18C252.394 20.5067 252.914 22.48 253.954 23.92C255.02 25.3333 256.5 26.04 258.394 26.04C260.34 26.04 261.86 25.3333 262.954 23.92C264.074 22.48 264.634 20.4933 264.634 17.96C264.634 12.6267 262.607 9.96 258.554 9.96ZM281.99 22.48L282.07 19.92C282.096 18.8267 282.576 18.28 283.51 18.28C284.443 18.28 284.91 18.8933 284.91 20.12C284.91 23.0267 284.536 25.0533 283.79 26.2C282.776 27.7467 281.11 28.52 278.79 28.52C276.656 28.52 275.136 27.84 274.23 26.48C273.563 25.4933 273.23 23.8133 273.23 21.44V11.84C273.23 11.28 272.976 11 272.47 11H271.19C270.763 11 270.403 10.8667 270.11 10.6C269.843 10.3067 269.71 9.96 269.71 9.56C269.71 9.18667 269.843 8.85333 270.11 8.56C270.403 8.26667 270.723 8.12 271.07 8.12H272.63C273.083 8.12 273.31 7.86667 273.31 7.36V3.24C273.31 2.22667 273.83 1.72 274.87 1.72C275.83 1.72 276.31 2.22667 276.31 3.24V7.52C276.31 7.92 276.55 8.12 277.03 8.12H281.39C282.403 8.12 282.91 8.58667 282.91 9.52C282.91 10.5067 282.363 11 281.27 11H276.87C276.496 11 276.31 11.28 276.31 11.84V21.68C276.31 24.48 277.23 25.88 279.07 25.88C280.936 25.88 281.91 24.7467 281.99 22.48ZM305.165 16.24C305.165 17.2533 305.099 17.88 304.965 18.12C304.832 18.3333 304.445 18.44 303.805 18.44H291.085C290.739 18.44 290.512 18.4933 290.405 18.6C290.299 18.68 290.245 18.8267 290.245 19.04C290.245 21.04 290.845 22.7067 292.045 24.04C293.245 25.3733 294.739 26.04 296.525 26.04C297.699 26.04 298.765 25.72 299.725 25.08C300.712 24.44 301.352 23.6267 301.645 22.64L302.005 21.48C302.192 20.84 302.632 20.52 303.325 20.52C304.312 20.52 304.805 21.0267 304.805 22.04C304.805 23.7733 303.925 25.32 302.165 26.68C300.405 28.0133 298.405 28.68 296.165 28.68C293.365 28.68 291.139 27.7467 289.485 25.88C287.832 23.9867 287.005 21.4533 287.005 18.28C287.005 15.0267 287.885 12.3867 289.645 10.36C291.405 8.33333 293.699 7.32 296.525 7.32C299.032 7.32 301.099 8.16 302.725 9.84C304.352 11.52 305.165 13.6533 305.165 16.24ZM290.645 15.2C290.645 15.5733 290.939 15.76 291.525 15.76H301.085C301.645 15.76 301.925 15.5733 301.925 15.2C301.925 13.7867 301.392 12.56 300.325 11.52C299.259 10.48 298.005 9.96 296.565 9.96C295.072 9.96 293.712 10.5067 292.485 11.6C291.259 12.6667 290.645 13.8667 290.645 15.2ZM316.578 7.32C318.365 7.32 319.858 7.78667 321.058 8.72V8.56C321.058 7.57333 321.485 7.08 322.338 7.08C323.218 7.08 323.658 7.50667 323.658 8.36C323.658 8.52 323.631 8.92 323.578 9.56C323.471 10.0933 323.418 10.6267 323.418 11.16C323.418 11.48 323.458 11.9467 323.538 12.56C323.645 13.1733 323.698 13.64 323.698 13.96C323.698 14.9733 323.258 15.48 322.378 15.48C321.525 15.48 321.085 15.0533 321.058 14.2L321.018 12.88C320.991 12.08 320.525 11.4 319.618 10.84C318.738 10.2533 317.698 9.96 316.498 9.96C315.271 9.96 314.245 10.28 313.418 10.92C312.591 11.5333 312.178 12.3067 312.178 13.24C312.178 14.9467 313.351 15.96 315.698 16.28L318.018 16.6C322.551 17.2133 324.818 19.0933 324.818 22.24C324.818 24.16 324.085 25.72 322.618 26.92C321.151 28.0933 319.231 28.68 316.858 28.68C314.645 28.68 312.725 28.0533 311.098 26.8C311.125 27.0667 311.138 27.32 311.138 27.56C311.138 28.52 310.685 29 309.778 29C308.791 29 308.298 28.4533 308.298 27.36C308.298 27.5467 308.378 26.8533 308.538 25.28C308.591 24.9067 308.618 24.5333 308.618 24.16C308.618 23.52 308.565 22.92 308.458 22.36C308.351 21.8 308.298 21.36 308.298 21.04C308.298 20.1067 308.725 19.64 309.578 19.64C310.138 19.64 310.485 19.7733 310.618 20.04C310.778 20.3067 310.871 21.0133 310.898 22.16C310.925 23.3067 311.525 24.24 312.698 24.96C313.871 25.68 315.365 26.04 317.178 26.04C318.485 26.04 319.565 25.7067 320.418 25.04C321.271 24.3733 321.698 23.5333 321.698 22.52C321.698 20.7067 320.258 19.6533 317.378 19.36C314.631 19.0667 312.538 18.5333 311.098 17.76C309.658 16.96 308.938 15.5733 308.938 13.6C308.938 11.7333 309.645 10.2267 311.058 9.08C312.471 7.90667 314.311 7.32 316.578 7.32Z" fill="black"/>
</svg>
