<svg width="571" height="36" viewBox="0 0 571 36" fill="none" xmlns="http://www.w3.org/2000/svg">
<path d="M13.28 22.72C13.28 24.72 13.96 25.72 15.32 25.72C15.5333 25.72 15.8533 25.6933 16.28 25.64C16.7067 25.56 17.0267 25.52 17.24 25.52C17.5867 25.52 17.88 25.6533 18.12 25.92C18.3867 26.16 18.52 26.4533 18.52 26.8C18.52 27.7333 17.92 28.2 16.72 28.2C16.6667 28.2 16.5867 28.2 16.48 28.2C16.3467 28.1733 16.2533 28.16 16.2 28.16L14.24 27.88C13.4933 27.7733 12.6533 27.72 11.72 27.72C10.7067 27.72 9.81333 27.7733 9.04 27.88L7.04 28.16C6.96 28.16 6.86667 28.1733 6.76 28.2C6.62667 28.2 6.53333 28.2 6.48 28.2C5.30667 28.2 4.72 27.7333 4.72 26.8C4.72 25.9467 5.14667 25.52 6 25.52C6.21333 25.52 6.53333 25.56 6.96 25.64C7.38667 25.6933 7.70667 25.72 7.92 25.72C9.25333 25.72 9.92 24.72 9.92 22.72V19.92L9.96 16.4V13L9.92 6.48C9.92 4.58667 8.94667 3.64 7 3.64H5.76C3.84 3.64 2.88 4.57333 2.88 6.44C2.88 7.10667 2.89333 7.56 2.92 7.8L3.08 9.28C3.10667 9.52 3.12 9.85333 3.12 10.28C3.12 11.96 2.6 12.8 1.56 12.8C0.573333 12.8 0.08 12.1867 0.08 10.96C0.08 10.6133 0.106667 10.0133 0.16 9.16C0.24 7.88 0.28 7.06667 0.28 6.72C0.28 6.05333 0.253333 5.36 0.2 4.64C0.0933334 3.22667 0.04 2.62667 0.04 2.84C0.04 1.72 0.546667 1.16 1.56 1.16C1.93333 1.16 2.8 1.2 4.16 1.28C4.29333 1.28 5.38667 1.30667 7.44 1.36L12 1.44C12.5333 1.44 13.96 1.41333 16.28 1.36C16.7867 1.36 17.6533 1.32 18.88 1.24C19.9733 1.16 20.8267 1.12 21.44 1.12C22.7733 1.12 23.44 1.66666 23.44 2.76V2.84C23.44 3.10667 23.4 3.6 23.32 4.32C23.2667 5.04 23.2 5.81333 23.12 6.64V7.08C23.12 7.48 23.16 8.10667 23.24 8.96C23.3467 10.08 23.4 10.7733 23.4 11.04C23.4 12.1333 22.88 12.68 21.84 12.68C20.8267 12.68 20.32 12.0133 20.32 10.68C20.32 10.2 20.36 9.49333 20.44 8.56C20.52 7.6 20.56 6.88 20.56 6.4C20.56 4.56 19.5067 3.64 17.4 3.64H16.28C15.2933 3.64 14.5867 3.85333 14.16 4.28C13.7333 4.68 13.4933 5.36 13.44 6.32L13.32 9.12L13.28 22.72ZM32.3088 2.24L32.1488 10C33.2154 8.98667 34.1888 8.29333 35.0688 7.92C35.9488 7.52 36.9888 7.32 38.1888 7.32C40.4821 7.32 42.3221 7.97333 43.7088 9.28C45.0954 10.5867 45.7888 12.3067 45.7888 14.44V21.12C45.7888 22.6933 45.8021 23.56 45.8288 23.72C45.9354 25.0533 46.2821 25.72 46.8688 25.72C47.0821 25.72 47.3888 25.6667 47.7888 25.56C47.9488 25.5333 48.1621 25.52 48.4288 25.52C49.4154 25.52 49.9088 25.96 49.9088 26.84C49.9088 27.72 49.2688 28.16 47.9887 28.16C47.6421 28.16 47.1354 28.12 46.4688 28.04C45.3488 27.9067 44.4421 27.84 43.7488 27.84C43.0554 27.84 42.5221 27.8667 42.1488 27.92C41.0288 28.08 40.3354 28.16 40.0688 28.16C39.5888 28.16 39.1888 28.0267 38.8688 27.76C38.5488 27.4667 38.3888 27.1067 38.3888 26.68C38.3888 26.3333 38.5221 26.04 38.7888 25.8C39.0821 25.56 39.4154 25.44 39.7888 25.44C40.0821 25.44 40.4288 25.5067 40.8288 25.64C41.0688 25.72 41.2954 25.76 41.5088 25.76C42.3088 25.76 42.7221 24.8933 42.7488 23.16C42.7488 22.84 42.7621 22.2133 42.7888 21.28L42.8288 19.56V17.4C42.8288 14.68 42.5621 12.8533 42.0288 11.92C41.2554 10.5333 39.8954 9.84 37.9488 9.84C35.8421 9.84 34.3088 10.56 33.3488 12C32.6821 12.9867 32.3354 14.5733 32.3088 16.76L32.2688 19.64C32.2688 19.8 32.2554 20.0667 32.2288 20.44C32.2288 20.7867 32.2288 21.04 32.2288 21.2C32.2288 22.72 32.2421 23.6 32.2688 23.84C32.4021 25.1467 32.7888 25.8 33.4288 25.8C33.6421 25.8 33.9354 25.76 34.3088 25.68C34.7088 25.5733 35.0021 25.52 35.1888 25.52C36.0421 25.52 36.4688 25.9333 36.4688 26.76C36.4688 27.6933 35.8821 28.16 34.7088 28.16C34.3354 28.16 33.7754 28.12 33.0288 28.04C32.0154 27.9333 31.1488 27.88 30.4288 27.88C29.9754 27.88 29.3488 27.92 28.5488 28C27.4821 28.1067 26.8021 28.16 26.5088 28.16C25.4154 28.16 24.8688 27.68 24.8688 26.72C24.8688 25.92 25.3754 25.52 26.3888 25.52C26.7354 25.52 26.9888 25.5467 27.1488 25.6C27.6021 25.68 27.9221 25.72 28.1088 25.72C28.5354 25.72 28.8154 25.32 28.9488 24.52C29.1088 23.6933 29.2021 22.0267 29.2288 19.52L29.2688 12.36C29.2688 8.36 29.1888 5.84 29.0288 4.8C28.8688 3.73333 28.4954 3.2 27.9088 3.2C27.7221 3.2 27.4421 3.24 27.0688 3.32C26.6954 3.4 26.4021 3.44 26.1888 3.44C25.2821 3.44 24.8288 3.01333 24.8288 2.16C24.8288 1.78667 24.9888 1.46667 25.3088 1.2C25.6288 0.933333 26.0154 0.8 26.4688 0.8C26.6021 0.8 27.0554 0.839999 27.8288 0.919998C28.3354 0.973332 28.8821 1 29.4688 1C29.7088 1 30.0421 0.973332 30.4688 0.919998C30.8954 0.866666 31.2021 0.839999 31.3888 0.839999C32.0021 0.839999 32.3088 1.28 32.3088 2.16V2.24ZM57.9775 16.4V21.6C57.9775 22.9333 57.9908 23.72 58.0175 23.96C58.1508 25.16 58.5108 25.76 59.0975 25.76C59.2308 25.76 59.5642 25.6933 60.0975 25.56C60.2308 25.5067 60.4308 25.48 60.6975 25.48C61.7108 25.48 62.2175 25.92 62.2175 26.8C62.2175 27.1733 62.0442 27.4933 61.6975 27.76C61.3775 28.0267 60.9642 28.16 60.4575 28.16C60.0308 28.16 59.3775 28.1067 58.4975 28C57.6442 27.8667 57.0042 27.8 56.5775 27.8C55.8842 27.8 55.1108 27.8533 54.2575 27.96C53.2175 28.0933 52.5242 28.16 52.1775 28.16C51.1108 28.16 50.5775 27.7067 50.5775 26.8C50.5775 25.92 51.0308 25.48 51.9375 25.48C52.1508 25.48 52.4575 25.52 52.8575 25.6C53.2842 25.68 53.6042 25.72 53.8175 25.72C54.4575 25.72 54.8442 24.8667 54.9775 23.16C54.9775 23.0533 54.9775 21.8933 54.9775 19.68V16.4C54.9775 14.1867 54.9775 13.0267 54.9775 12.92C54.8442 11.24 54.4442 10.4 53.7775 10.4C53.5642 10.4 53.2575 10.4533 52.8575 10.56C52.4842 10.64 52.2042 10.68 52.0175 10.68C51.0575 10.68 50.5775 10.2533 50.5775 9.4C50.5775 8.49333 51.1642 8.04 52.3375 8.04C52.8442 8.04 53.2042 8.05333 53.4175 8.08C54.2708 8.18667 54.8175 8.24 55.0575 8.24C55.2708 8.24 55.5908 8.21333 56.0175 8.16C56.4708 8.08 56.8042 8.04 57.0175 8.04C57.7908 8.04 58.1775 8.56 58.1775 9.6C58.1775 9.70667 58.1642 9.86667 58.1375 10.08C58.1108 10.2933 58.0975 10.4533 58.0975 10.56C58.0708 10.7733 58.0442 11.6 58.0175 13.04C57.9908 14.1333 57.9775 15.2533 57.9775 16.4ZM55.8975 5.92C55.2842 5.92 54.7508 5.70667 54.2975 5.28C53.8708 4.82667 53.6575 4.29333 53.6575 3.68C53.6575 3.06667 53.8708 2.54667 54.2975 2.12C54.7508 1.69333 55.2842 1.48 55.8975 1.48C56.5108 1.48 57.0308 1.69333 57.4575 2.12C57.9108 2.54667 58.1375 3.06667 58.1375 3.68C58.1375 4.29333 57.9108 4.82667 57.4575 5.28C57.0308 5.70667 56.5108 5.92 55.8975 5.92ZM72.3203 7.32C74.107 7.32 75.6003 7.78667 76.8003 8.72V8.56C76.8003 7.57333 77.227 7.08 78.0803 7.08C78.9603 7.08 79.4003 7.50667 79.4003 8.36C79.4003 8.52 79.3736 8.92 79.3203 9.56C79.2136 10.0933 79.1603 10.6267 79.1603 11.16C79.1603 11.48 79.2003 11.9467 79.2803 12.56C79.387 13.1733 79.4403 13.64 79.4403 13.96C79.4403 14.9733 79.0003 15.48 78.1203 15.48C77.267 15.48 76.827 15.0533 76.8003 14.2L76.7603 12.88C76.7336 12.08 76.267 11.4 75.3603 10.84C74.4803 10.2533 73.4403 9.96 72.2403 9.96C71.0136 9.96 69.987 10.28 69.1603 10.92C68.3336 11.5333 67.9203 12.3067 67.9203 13.24C67.9203 14.9467 69.0936 15.96 71.4403 16.28L73.7603 16.6C78.2936 17.2133 80.5603 19.0933 80.5603 22.24C80.5603 24.16 79.827 25.72 78.3603 26.92C76.8936 28.0933 74.9736 28.68 72.6003 28.68C70.387 28.68 68.467 28.0533 66.8403 26.8C66.867 27.0667 66.8803 27.32 66.8803 27.56C66.8803 28.52 66.427 29 65.5203 29C64.5336 29 64.0403 28.4533 64.0403 27.36C64.0403 27.5467 64.1203 26.8533 64.2803 25.28C64.3336 24.9067 64.3603 24.5333 64.3603 24.16C64.3603 23.52 64.307 22.92 64.2003 22.36C64.0936 21.8 64.0403 21.36 64.0403 21.04C64.0403 20.1067 64.467 19.64 65.3203 19.64C65.8803 19.64 66.227 19.7733 66.3603 20.04C66.5203 20.3067 66.6136 21.0133 66.6403 22.16C66.667 23.3067 67.267 24.24 68.4403 24.96C69.6136 25.68 71.107 26.04 72.9203 26.04C74.227 26.04 75.307 25.7067 76.1603 25.04C77.0136 24.3733 77.4403 23.5333 77.4403 22.52C77.4403 20.7067 76.0003 19.6533 73.1203 19.36C70.3736 19.0667 68.2803 18.5333 66.8403 17.76C65.4003 16.96 64.6803 15.5733 64.6803 13.6C64.6803 11.7333 65.387 10.2267 66.8003 9.08C68.2136 7.90667 70.0536 7.32 72.3203 7.32ZM102.008 7.32C103.794 7.32 105.288 7.78667 106.488 8.72V8.56C106.488 7.57333 106.914 7.08 107.768 7.08C108.648 7.08 109.088 7.50667 109.088 8.36C109.088 8.52 109.061 8.92 109.008 9.56C108.901 10.0933 108.848 10.6267 108.848 11.16C108.848 11.48 108.888 11.9467 108.968 12.56C109.074 13.1733 109.128 13.64 109.128 13.96C109.128 14.9733 108.688 15.48 107.808 15.48C106.954 15.48 106.514 15.0533 106.488 14.2L106.448 12.88C106.421 12.08 105.954 11.4 105.048 10.84C104.168 10.2533 103.128 9.96 101.928 9.96C100.701 9.96 99.6745 10.28 98.8478 10.92C98.0211 11.5333 97.6078 12.3067 97.6078 13.24C97.6078 14.9467 98.7811 15.96 101.128 16.28L103.448 16.6C107.981 17.2133 110.248 19.0933 110.248 22.24C110.248 24.16 109.514 25.72 108.048 26.92C106.581 28.0933 104.661 28.68 102.288 28.68C100.074 28.68 98.1545 28.0533 96.5278 26.8C96.5545 27.0667 96.5678 27.32 96.5678 27.56C96.5678 28.52 96.1145 29 95.2078 29C94.2211 29 93.7278 28.4533 93.7278 27.36C93.7278 27.5467 93.8078 26.8533 93.9678 25.28C94.0211 24.9067 94.0478 24.5333 94.0478 24.16C94.0478 23.52 93.9945 22.92 93.8878 22.36C93.7811 21.8 93.7278 21.36 93.7278 21.04C93.7278 20.1067 94.1545 19.64 95.0078 19.64C95.5678 19.64 95.9145 19.7733 96.0478 20.04C96.2078 20.3067 96.3011 21.0133 96.3278 22.16C96.3545 23.3067 96.9545 24.24 98.1278 24.96C99.3011 25.68 100.794 26.04 102.608 26.04C103.914 26.04 104.994 25.7067 105.848 25.04C106.701 24.3733 107.128 23.5333 107.128 22.52C107.128 20.7067 105.688 19.6533 102.808 19.36C100.061 19.0667 97.9678 18.5333 96.5278 17.76C95.0878 16.96 94.3678 15.5733 94.3678 13.6C94.3678 11.7333 95.0745 10.2267 96.4878 9.08C97.9011 7.90667 99.7411 7.32 102.008 7.32ZM119.735 16.4V21.6C119.735 22.9333 119.749 23.72 119.775 23.96C119.909 25.16 120.269 25.76 120.855 25.76C120.989 25.76 121.322 25.6933 121.855 25.56C121.989 25.5067 122.189 25.48 122.455 25.48C123.469 25.48 123.975 25.92 123.975 26.8C123.975 27.1733 123.802 27.4933 123.455 27.76C123.135 28.0267 122.722 28.16 122.215 28.16C121.789 28.16 121.135 28.1067 120.255 28C119.402 27.8667 118.762 27.8 118.335 27.8C117.642 27.8 116.869 27.8533 116.015 27.96C114.975 28.0933 114.282 28.16 113.935 28.16C112.869 28.16 112.335 27.7067 112.335 26.8C112.335 25.92 112.789 25.48 113.695 25.48C113.909 25.48 114.215 25.52 114.615 25.6C115.042 25.68 115.362 25.72 115.575 25.72C116.215 25.72 116.602 24.8667 116.735 23.16C116.735 23.0533 116.735 21.8933 116.735 19.68V16.4C116.735 14.1867 116.735 13.0267 116.735 12.92C116.602 11.24 116.202 10.4 115.535 10.4C115.322 10.4 115.015 10.4533 114.615 10.56C114.242 10.64 113.962 10.68 113.775 10.68C112.815 10.68 112.335 10.2533 112.335 9.4C112.335 8.49333 112.922 8.04 114.095 8.04C114.602 8.04 114.962 8.05333 115.175 8.08C116.029 8.18667 116.575 8.24 116.815 8.24C117.029 8.24 117.349 8.21333 117.775 8.16C118.229 8.08 118.562 8.04 118.775 8.04C119.549 8.04 119.935 8.56 119.935 9.6C119.935 9.70667 119.922 9.86667 119.895 10.08C119.869 10.2933 119.855 10.4533 119.855 10.56C119.829 10.7733 119.802 11.6 119.775 13.04C119.749 14.1333 119.735 15.2533 119.735 16.4ZM117.655 5.92C117.042 5.92 116.509 5.70667 116.055 5.28C115.629 4.82667 115.415 4.29333 115.415 3.68C115.415 3.06667 115.629 2.54667 116.055 2.12C116.509 1.69333 117.042 1.48 117.655 1.48C118.269 1.48 118.789 1.69333 119.215 2.12C119.669 2.54667 119.895 3.06667 119.895 3.68C119.895 4.29333 119.669 4.82667 119.215 5.28C118.789 5.70667 118.269 5.92 117.655 5.92ZM136.638 22.48L136.718 19.92C136.745 18.8267 137.225 18.28 138.158 18.28C139.091 18.28 139.558 18.8933 139.558 20.12C139.558 23.0267 139.185 25.0533 138.438 26.2C137.425 27.7467 135.758 28.52 133.438 28.52C131.305 28.52 129.785 27.84 128.878 26.48C128.211 25.4933 127.878 23.8133 127.878 21.44V11.84C127.878 11.28 127.625 11 127.118 11H125.838C125.411 11 125.051 10.8667 124.758 10.6C124.491 10.3067 124.358 9.96 124.358 9.56C124.358 9.18667 124.491 8.85333 124.758 8.56C125.051 8.26667 125.371 8.12 125.718 8.12H127.278C127.731 8.12 127.958 7.86667 127.958 7.36V3.24C127.958 2.22667 128.478 1.72 129.518 1.72C130.478 1.72 130.958 2.22667 130.958 3.24V7.52C130.958 7.92 131.198 8.12 131.678 8.12H136.038C137.051 8.12 137.558 8.58667 137.558 9.52C137.558 10.5067 137.011 11 135.918 11H131.518C131.145 11 130.958 11.28 130.958 11.84V21.68C130.958 24.48 131.878 25.88 133.718 25.88C135.585 25.88 136.558 24.7467 136.638 22.48ZM159.814 16.24C159.814 17.2533 159.747 17.88 159.614 18.12C159.48 18.3333 159.094 18.44 158.454 18.44H145.734C145.387 18.44 145.16 18.4933 145.054 18.6C144.947 18.68 144.894 18.8267 144.894 19.04C144.894 21.04 145.494 22.7067 146.694 24.04C147.894 25.3733 149.387 26.04 151.174 26.04C152.347 26.04 153.414 25.72 154.374 25.08C155.36 24.44 156 23.6267 156.294 22.64L156.654 21.48C156.84 20.84 157.28 20.52 157.974 20.52C158.96 20.52 159.454 21.0267 159.454 22.04C159.454 23.7733 158.574 25.32 156.814 26.68C155.054 28.0133 153.054 28.68 150.814 28.68C148.014 28.68 145.787 27.7467 144.134 25.88C142.48 23.9867 141.654 21.4533 141.654 18.28C141.654 15.0267 142.534 12.3867 144.294 10.36C146.054 8.33333 148.347 7.32 151.174 7.32C153.68 7.32 155.747 8.16 157.374 9.84C159 11.52 159.814 13.6533 159.814 16.24ZM145.294 15.2C145.294 15.5733 145.587 15.76 146.174 15.76H155.734C156.294 15.76 156.574 15.5733 156.574 15.2C156.574 13.7867 156.04 12.56 154.974 11.52C153.907 10.48 152.654 9.96 151.214 9.96C149.72 9.96 148.36 10.5067 147.134 11.6C145.907 12.6667 145.294 13.8667 145.294 15.2ZM179.267 16.4V21.6C179.267 22.9333 179.28 23.72 179.307 23.96C179.44 25.16 179.8 25.76 180.387 25.76C180.52 25.76 180.853 25.6933 181.387 25.56C181.52 25.5067 181.72 25.48 181.987 25.48C183 25.48 183.507 25.92 183.507 26.8C183.507 27.1733 183.333 27.4933 182.987 27.76C182.667 28.0267 182.253 28.16 181.747 28.16C181.32 28.16 180.667 28.1067 179.787 28C178.933 27.8667 178.293 27.8 177.867 27.8C177.173 27.8 176.4 27.8533 175.547 27.96C174.507 28.0933 173.813 28.16 173.467 28.16C172.4 28.16 171.867 27.7067 171.867 26.8C171.867 25.92 172.32 25.48 173.227 25.48C173.44 25.48 173.747 25.52 174.147 25.6C174.573 25.68 174.893 25.72 175.107 25.72C175.747 25.72 176.133 24.8667 176.267 23.16C176.267 23.0533 176.267 21.8933 176.267 19.68V16.4C176.267 14.1867 176.267 13.0267 176.267 12.92C176.133 11.24 175.733 10.4 175.067 10.4C174.853 10.4 174.547 10.4533 174.147 10.56C173.773 10.64 173.493 10.68 173.307 10.68C172.347 10.68 171.867 10.2533 171.867 9.4C171.867 8.49333 172.453 8.04 173.627 8.04C174.133 8.04 174.493 8.05333 174.707 8.08C175.56 8.18667 176.107 8.24 176.347 8.24C176.56 8.24 176.88 8.21333 177.307 8.16C177.76 8.08 178.093 8.04 178.307 8.04C179.08 8.04 179.467 8.56 179.467 9.6C179.467 9.70667 179.453 9.86667 179.427 10.08C179.4 10.2933 179.387 10.4533 179.387 10.56C179.36 10.7733 179.333 11.6 179.307 13.04C179.28 14.1333 179.267 15.2533 179.267 16.4ZM177.187 5.92C176.573 5.92 176.04 5.70667 175.587 5.28C175.16 4.82667 174.947 4.29333 174.947 3.68C174.947 3.06667 175.16 2.54667 175.587 2.12C176.04 1.69333 176.573 1.48 177.187 1.48C177.8 1.48 178.32 1.69333 178.747 2.12C179.2 2.54667 179.427 3.06667 179.427 3.68C179.427 4.29333 179.2 4.82667 178.747 5.28C178.32 5.70667 177.8 5.92 177.187 5.92ZM193.609 7.32C195.396 7.32 196.889 7.78667 198.089 8.72V8.56C198.089 7.57333 198.516 7.08 199.369 7.08C200.249 7.08 200.689 7.50667 200.689 8.36C200.689 8.52 200.663 8.92 200.609 9.56C200.503 10.0933 200.449 10.6267 200.449 11.16C200.449 11.48 200.489 11.9467 200.569 12.56C200.676 13.1733 200.729 13.64 200.729 13.96C200.729 14.9733 200.289 15.48 199.409 15.48C198.556 15.48 198.116 15.0533 198.089 14.2L198.049 12.88C198.023 12.08 197.556 11.4 196.649 10.84C195.769 10.2533 194.729 9.96 193.529 9.96C192.303 9.96 191.276 10.28 190.449 10.92C189.623 11.5333 189.209 12.3067 189.209 13.24C189.209 14.9467 190.383 15.96 192.729 16.28L195.049 16.6C199.583 17.2133 201.849 19.0933 201.849 22.24C201.849 24.16 201.116 25.72 199.649 26.92C198.183 28.0933 196.263 28.68 193.889 28.68C191.676 28.68 189.756 28.0533 188.129 26.8C188.156 27.0667 188.169 27.32 188.169 27.56C188.169 28.52 187.716 29 186.809 29C185.823 29 185.329 28.4533 185.329 27.36C185.329 27.5467 185.409 26.8533 185.569 25.28C185.623 24.9067 185.649 24.5333 185.649 24.16C185.649 23.52 185.596 22.92 185.489 22.36C185.383 21.8 185.329 21.36 185.329 21.04C185.329 20.1067 185.756 19.64 186.609 19.64C187.169 19.64 187.516 19.7733 187.649 20.04C187.809 20.3067 187.903 21.0133 187.929 22.16C187.956 23.3067 188.556 24.24 189.729 24.96C190.903 25.68 192.396 26.04 194.209 26.04C195.516 26.04 196.596 25.7067 197.449 25.04C198.303 24.3733 198.729 23.5333 198.729 22.52C198.729 20.7067 197.289 19.6533 194.409 19.36C191.663 19.0667 189.569 18.5333 188.129 17.76C186.689 16.96 185.969 15.5733 185.969 13.6C185.969 11.7333 186.676 10.2267 188.089 9.08C189.503 7.90667 191.343 7.32 193.609 7.32ZM232.057 28.52C229.87 28.52 228.524 27.5733 228.017 25.68C226.657 27.68 224.524 28.68 221.617 28.68C219.457 28.68 217.724 28.1467 216.417 27.08C215.137 26.0133 214.497 24.5867 214.497 22.8C214.497 20.5867 215.444 18.96 217.337 17.92C218.057 17.52 218.67 17.2667 219.177 17.16C219.71 17.0267 220.764 16.8667 222.337 16.68C224.577 16.44 226.03 16.1067 226.697 15.68C227.39 15.2533 227.737 14.4667 227.737 13.32C227.737 12.2267 227.35 11.3733 226.577 10.76C225.83 10.12 224.777 9.8 223.417 9.8C222.217 9.8 221.097 10.1333 220.057 10.8C219.657 11.0667 219.457 11.3467 219.457 11.64C219.457 11.7467 219.577 11.88 219.817 12.04C220.19 12.3067 220.377 12.76 220.377 13.4C220.377 13.9333 220.177 14.3733 219.777 14.72C219.404 15.0667 218.924 15.24 218.337 15.24C217.644 15.24 217.057 15 216.577 14.52C216.124 14.04 215.897 13.4533 215.897 12.76C215.897 11.2667 216.63 9.98667 218.097 8.92C219.59 7.85333 221.39 7.32 223.497 7.32C228.35 7.32 230.777 9.65333 230.777 14.32V22.4C230.777 23.68 230.804 24.44 230.857 24.68C231.017 25.6133 231.47 26.08 232.217 26.08C233.15 26.08 233.617 25.2267 233.617 23.52V21.56C233.617 20.7067 234.03 20.28 234.857 20.28C235.737 20.28 236.177 20.92 236.177 22.2V22.4L236.137 24.68C236.084 27.24 234.724 28.52 232.057 28.52ZM227.617 20.56L227.657 17.72C227.07 18.2533 226.444 18.6267 225.777 18.84C225.137 19.0533 223.977 19.24 222.297 19.4C219.257 19.6933 217.737 20.8133 217.737 22.76C217.737 23.7733 218.097 24.5733 218.817 25.16C219.564 25.7467 220.564 26.04 221.817 26.04C223.604 26.04 225.004 25.56 226.017 24.6C227.057 23.6133 227.59 22.2667 227.617 20.56ZM253.035 13.6L255.955 25.76L259.075 11.68C259.395 10.1867 259.742 9.2 260.115 8.72C260.515 8.21333 261.115 7.96 261.915 7.96C262.742 7.96 263.342 8.21333 263.715 8.72C264.115 9.22667 264.475 10.2133 264.795 11.68L267.795 25.76L270.755 13.6C270.942 12.8267 271.035 12.16 271.035 11.6V11.52C271.035 10.8 270.728 10.44 270.115 10.44C269.875 10.44 269.528 10.4933 269.075 10.6C268.622 10.68 268.275 10.72 268.035 10.72C267.048 10.72 266.555 10.28 266.555 9.4C266.555 8.46667 267.208 8 268.515 8C268.702 8 268.902 8.01333 269.115 8.04L270.755 8.24C271.182 8.29333 271.848 8.32 272.755 8.32C273.475 8.32 274.168 8.28 274.835 8.2L276.155 8.04C276.262 8.01333 276.408 8 276.595 8C277.742 8 278.315 8.45333 278.315 9.36C278.315 10.24 277.875 10.68 276.995 10.68C276.702 10.68 276.475 10.6533 276.315 10.6C275.888 10.5467 275.648 10.52 275.595 10.52C274.875 10.52 274.128 12 273.355 14.96L270.635 25.24C270.315 26.4933 269.942 27.3733 269.515 27.88C269.088 28.36 268.502 28.6 267.755 28.6C266.342 28.6 265.395 27.48 264.915 25.24L261.915 11L258.795 25C258.502 26.3333 258.128 27.28 257.675 27.84C257.222 28.3733 256.608 28.64 255.835 28.64C254.582 28.64 253.742 27.8133 253.315 26.16L249.475 11.76C249.235 10.9067 248.862 10.48 248.355 10.48C248.195 10.48 247.955 10.52 247.635 10.6C247.208 10.6533 246.915 10.68 246.755 10.68C245.875 10.68 245.435 10.2533 245.435 9.4C245.435 8.46667 246.035 8 247.235 8C247.448 8 247.595 8.01333 247.675 8.04L249.395 8.28C249.768 8.33333 250.262 8.36 250.875 8.36C251.622 8.36 252.475 8.30667 253.435 8.2C254.635 8.06667 255.328 8 255.515 8C256.688 8 257.275 8.45333 257.275 9.36C257.275 10.24 256.782 10.68 255.795 10.68C255.608 10.68 255.275 10.6533 254.795 10.6C254.448 10.4933 254.115 10.44 253.795 10.44C253.102 10.44 252.755 10.84 252.755 11.64C252.755 12.1733 252.848 12.8267 253.035 13.6ZM288.666 28.68C285.866 28.68 283.626 27.72 281.946 25.8C280.266 23.8533 279.426 21.2533 279.426 18C279.426 14.7467 280.266 12.16 281.946 10.24C283.653 8.29333 285.933 7.32 288.786 7.32C291.693 7.32 293.986 8.26667 295.666 10.16C297.346 12.0533 298.186 14.6267 298.186 17.88C298.186 21.1333 297.32 23.7467 295.586 25.72C293.853 27.6933 291.546 28.68 288.666 28.68ZM288.866 9.96C287 9.96 285.533 10.6133 284.466 11.92C283.4 13.2267 282.813 15.08 282.706 17.48C282.706 17.48 282.706 17.6533 282.706 18C282.706 20.5067 283.226 22.48 284.266 23.92C285.333 25.3333 286.813 26.04 288.706 26.04C290.653 26.04 292.173 25.3333 293.266 23.92C294.386 22.48 294.946 20.4933 294.946 17.96C294.946 12.6267 292.92 9.96 288.866 9.96ZM307.342 9.16V10.24C308.729 8.29333 310.582 7.32 312.902 7.32C314.769 7.32 316.276 7.85333 317.422 8.92C318.596 9.96 319.182 11.3067 319.182 12.96C319.182 14.1333 318.889 15.0933 318.302 15.84C317.716 16.56 316.942 16.92 315.982 16.92C315.369 16.92 314.849 16.7333 314.422 16.36C313.996 15.9867 313.782 15.5333 313.782 15C313.782 14.5733 313.942 14.2 314.262 13.88C314.582 13.5333 314.956 13.36 315.382 13.36C315.462 13.36 315.636 13.4 315.902 13.48C316.062 13.16 316.142 12.8667 316.142 12.6C316.142 11.8267 315.796 11.1733 315.102 10.64C314.436 10.1067 313.596 9.84 312.582 9.84C310.502 9.84 309.116 10.7733 308.422 12.64C307.996 13.7867 307.782 15.52 307.782 17.84V20.48C307.782 22.2667 307.796 23.2667 307.822 23.48C307.956 25 308.369 25.76 309.062 25.76C309.409 25.76 309.769 25.7067 310.142 25.6C310.436 25.52 310.689 25.48 310.902 25.48C311.756 25.48 312.182 25.9067 312.182 26.76C312.182 27.6933 311.636 28.16 310.542 28.16H310.382C309.982 28.16 309.369 28.1067 308.542 28C307.742 27.92 307.142 27.88 306.742 27.88C305.676 27.88 304.836 27.9067 304.222 27.96L301.982 28.16C300.889 28.16 300.342 27.6933 300.342 26.76C300.342 25.9333 300.849 25.52 301.862 25.52C302.129 25.52 302.329 25.5333 302.462 25.56L303.062 25.68C303.329 25.7333 303.516 25.76 303.622 25.76C304.289 25.76 304.649 25.1467 304.702 23.92L304.782 21.88L304.662 12.8C304.582 11.2267 304.182 10.44 303.462 10.44C303.249 10.44 302.956 10.48 302.582 10.56C302.209 10.64 301.916 10.68 301.702 10.68C300.822 10.68 300.382 10.2533 300.382 9.4C300.382 8.46667 300.956 8 302.102 8C302.369 8 302.769 8.04 303.302 8.12C303.836 8.17333 304.236 8.2 304.502 8.2C304.716 8.2 305.062 8.17333 305.542 8.12C305.756 8.06667 306.009 8.04 306.302 8.04C306.996 8.04 307.342 8.41333 307.342 9.16ZM327.191 17.88L334.031 11.48C334.271 11.2667 334.391 11.0267 334.391 10.76C334.391 10.4933 334.217 10.36 333.871 10.36C333.604 10.36 333.217 10.4133 332.711 10.52C332.204 10.6267 331.817 10.68 331.551 10.68C330.617 10.68 330.151 10.2533 330.151 9.4C330.151 8.46667 330.737 8 331.911 8C332.204 8 332.577 8.02667 333.031 8.08C334.871 8.29333 336.271 8.4 337.231 8.4C337.764 8.4 338.217 8.37333 338.591 8.32L340.231 8.08C340.604 8.02667 340.911 8 341.151 8C342.457 8 343.111 8.45333 343.111 9.36C343.111 10.2133 342.657 10.64 341.751 10.64C341.537 10.64 341.231 10.6133 340.831 10.56C340.457 10.5067 340.164 10.48 339.951 10.48C339.284 10.48 338.591 10.8133 337.871 11.48L333.671 15.32C333.377 15.5867 333.231 15.8 333.231 15.96C333.231 16.0933 333.337 16.2933 333.551 16.56L338.671 23.2C339.977 24.88 340.911 25.72 341.471 25.72C341.604 25.72 341.817 25.6933 342.111 25.64C342.431 25.56 342.684 25.52 342.871 25.52C343.831 25.52 344.311 25.9467 344.311 26.8C344.311 27.7067 343.697 28.16 342.471 28.16C341.991 28.16 341.271 28.1067 340.311 28C339.377 27.8933 338.671 27.84 338.191 27.84C337.764 27.84 337.137 27.8933 336.311 28C335.511 28.1067 334.911 28.16 334.511 28.16C333.497 28.16 332.991 27.7067 332.991 26.8C332.991 25.9467 333.471 25.52 334.431 25.52C334.697 25.52 334.911 25.5333 335.071 25.56C335.551 25.6933 335.857 25.76 335.991 25.76C336.231 25.76 336.351 25.6667 336.351 25.48C336.351 25.4533 336.351 25.4133 336.351 25.36C336.324 25.3333 336.311 25.3067 336.311 25.28L335.911 24.72L335.391 23.96L331.391 18.64C331.124 18.2933 330.911 18.12 330.751 18.12C330.644 18.12 330.444 18.2533 330.151 18.52L327.191 21.16V22.08C327.191 23.36 327.204 24.08 327.231 24.24C327.364 25.1733 327.737 25.64 328.351 25.64C328.617 25.64 328.844 25.6267 329.031 25.6C329.217 25.5467 329.471 25.52 329.791 25.52C330.697 25.52 331.151 25.96 331.151 26.84C331.151 27.72 330.644 28.16 329.631 28.16C329.177 28.16 328.484 28.1067 327.551 28C326.644 27.8667 325.951 27.8 325.471 27.8C324.857 27.8 324.151 27.8533 323.351 27.96C322.337 28.0933 321.657 28.16 321.311 28.16C320.271 28.16 319.751 27.72 319.751 26.84C319.751 25.96 320.257 25.52 321.271 25.52C321.484 25.52 321.737 25.5467 322.031 25.6C322.457 25.68 322.751 25.72 322.911 25.72C323.551 25.72 323.911 25.2133 323.991 24.2L324.111 22.64V6.48C324.057 5.04 323.964 4.13333 323.831 3.76C323.697 3.36 323.417 3.16 322.991 3.16C322.857 3.16 322.604 3.18667 322.231 3.24C321.857 3.37333 321.484 3.44 321.111 3.44C320.231 3.44 319.791 3.02667 319.791 2.2C319.791 1.29333 320.311 0.839999 321.351 0.839999C321.884 0.839999 322.257 0.853332 322.471 0.879999C323.137 0.959999 323.577 1 323.791 1C324.004 1 324.311 0.973332 324.711 0.919998C325.137 0.839999 325.444 0.8 325.631 0.8H325.911C326.764 0.8 327.191 1.34667 327.191 2.44V17.88ZM342.785 17.32C342.785 16.3867 343.318 15.92 344.385 15.92H350.625C351.691 15.92 352.225 16.3733 352.225 17.28C352.225 18.24 351.691 18.72 350.625 18.72H344.385C343.318 18.72 342.785 18.2533 342.785 17.32ZM361.688 16.4V21.6C361.688 22.9333 361.702 23.72 361.728 23.96C361.862 25.16 362.222 25.76 362.808 25.76C362.942 25.76 363.275 25.6933 363.808 25.56C363.942 25.5067 364.142 25.48 364.408 25.48C365.422 25.48 365.928 25.92 365.928 26.8C365.928 27.1733 365.755 27.4933 365.408 27.76C365.088 28.0267 364.675 28.16 364.168 28.16C363.742 28.16 363.088 28.1067 362.208 28C361.355 27.8667 360.715 27.8 360.288 27.8C359.595 27.8 358.822 27.8533 357.968 27.96C356.928 28.0933 356.235 28.16 355.888 28.16C354.822 28.16 354.288 27.7067 354.288 26.8C354.288 25.92 354.742 25.48 355.648 25.48C355.862 25.48 356.168 25.52 356.568 25.6C356.995 25.68 357.315 25.72 357.528 25.72C358.168 25.72 358.555 24.8667 358.688 23.16C358.688 23.0533 358.688 21.8933 358.688 19.68V16.4C358.688 14.1867 358.688 13.0267 358.688 12.92C358.555 11.24 358.155 10.4 357.488 10.4C357.275 10.4 356.968 10.4533 356.568 10.56C356.195 10.64 355.915 10.68 355.728 10.68C354.768 10.68 354.288 10.2533 354.288 9.4C354.288 8.49333 354.875 8.04 356.048 8.04C356.555 8.04 356.915 8.05333 357.128 8.08C357.982 8.18667 358.528 8.24 358.768 8.24C358.982 8.24 359.302 8.21333 359.728 8.16C360.182 8.08 360.515 8.04 360.728 8.04C361.502 8.04 361.888 8.56 361.888 9.6C361.888 9.70667 361.875 9.86667 361.848 10.08C361.822 10.2933 361.808 10.4533 361.808 10.56C361.782 10.7733 361.755 11.6 361.728 13.04C361.702 14.1333 361.688 15.2533 361.688 16.4ZM359.608 5.92C358.995 5.92 358.462 5.70667 358.008 5.28C357.582 4.82667 357.368 4.29333 357.368 3.68C357.368 3.06667 357.582 2.54667 358.008 2.12C358.462 1.69333 358.995 1.48 359.608 1.48C360.222 1.48 360.742 1.69333 361.168 2.12C361.622 2.54667 361.848 3.06667 361.848 3.68C361.848 4.29333 361.622 4.82667 361.168 5.28C360.742 5.70667 360.222 5.92 359.608 5.92ZM373.711 9.24V10.36C375.311 8.33333 377.445 7.32 380.111 7.32C381.551 7.32 382.911 7.69333 384.191 8.44C385.471 9.16 386.338 10.0667 386.791 11.16C387.165 12.0667 387.351 13.2533 387.351 14.72V22.32C387.351 23.4667 387.365 24.1467 387.391 24.36C387.525 25.2667 387.885 25.72 388.471 25.72C388.711 25.72 389.018 25.6933 389.391 25.64C389.791 25.56 390.071 25.52 390.231 25.52C390.578 25.52 390.871 25.64 391.111 25.88C391.378 26.12 391.511 26.4133 391.511 26.76C391.511 27.16 391.351 27.4933 391.031 27.76C390.711 28.0267 390.325 28.16 389.871 28.16C389.498 28.16 388.885 28.1067 388.031 28C387.178 27.8933 386.378 27.84 385.631 27.84C384.938 27.84 384.365 27.8667 383.911 27.92C382.578 28.08 381.871 28.16 381.791 28.16C380.725 28.16 380.191 27.6933 380.191 26.76C380.191 25.9333 380.645 25.52 381.551 25.52C381.765 25.52 382.005 25.5467 382.271 25.6C382.778 25.7067 383.098 25.76 383.231 25.76C383.871 25.76 384.218 25.0267 384.271 23.56L384.351 21.52L384.391 19.08V16.04C384.391 14.6267 384.325 13.6533 384.191 13.12C383.951 12.1067 383.431 11.32 382.631 10.76C381.751 10.1467 380.751 9.84 379.631 9.84C377.498 9.84 375.965 10.6 375.031 12.12C374.391 13.16 374.071 14.9333 374.071 17.44V22.76C374.071 23.9333 374.151 24.7333 374.311 25.16C374.471 25.5867 374.765 25.8 375.191 25.8C375.405 25.8 375.698 25.7467 376.071 25.64C376.445 25.5333 376.751 25.48 376.991 25.48C377.818 25.48 378.231 25.9333 378.231 26.84C378.231 27.72 377.698 28.16 376.631 28.16C376.418 28.16 375.725 28.08 374.551 27.92C373.965 27.84 373.311 27.8 372.591 27.8C372.031 27.8 371.285 27.8533 370.351 27.96C369.178 28.0933 368.511 28.16 368.351 28.16C367.231 28.16 366.671 27.7067 366.671 26.8C366.671 25.9467 367.098 25.52 367.951 25.52C368.085 25.52 368.325 25.56 368.671 25.64C369.045 25.72 369.405 25.76 369.751 25.76C370.551 25.76 370.965 24.9867 370.991 23.44L371.071 19V14.16L370.991 12.76C370.938 11.8533 370.818 11.24 370.631 10.92C370.471 10.5733 370.178 10.4 369.751 10.4C369.565 10.4 369.285 10.44 368.911 10.52C368.565 10.5733 368.298 10.6 368.111 10.6C367.151 10.6 366.671 10.1733 366.671 9.32C366.671 8.44 367.271 8 368.471 8C368.631 8 368.765 8.01333 368.871 8.04L370.351 8.2C370.778 8.2 371.151 8.17333 371.471 8.12C372.165 8.06667 372.525 8.04 372.551 8.04C373.325 8.04 373.711 8.44 373.711 9.24ZM392.98 17.32C392.98 16.3867 393.513 15.92 394.58 15.92H400.82C401.887 15.92 402.42 16.3733 402.42 17.28C402.42 18.24 401.887 18.72 400.82 18.72H394.58C393.513 18.72 392.98 18.2533 392.98 17.32ZM411.484 9.16V10.44C412.977 8.36 415.017 7.32 417.604 7.32C420.27 7.32 422.39 8.24 423.964 10.08C425.537 11.92 426.324 14.4133 426.324 17.56C426.324 20.9467 425.484 23.6533 423.804 25.68C422.15 27.68 419.924 28.68 417.124 28.68C414.804 28.68 412.924 27.8667 411.484 26.24V29.56C411.484 30.5733 411.51 31.2267 411.564 31.52C411.724 32.3467 412.11 32.76 412.724 32.76C412.91 32.76 413.19 32.72 413.564 32.64C413.937 32.56 414.217 32.52 414.404 32.52C415.257 32.52 415.684 32.96 415.684 33.84C415.684 34.72 415.124 35.16 414.004 35.16C413.604 35.16 413.004 35.1067 412.204 35C411.617 34.92 410.737 34.88 409.564 34.88C408.924 34.88 408.39 34.9067 407.964 34.96C406.897 35.0933 406.19 35.16 405.844 35.16C405.39 35.16 405.004 35.0133 404.684 34.72C404.364 34.4533 404.204 34.1333 404.204 33.76C404.204 32.9067 404.657 32.48 405.564 32.48C405.724 32.48 405.977 32.52 406.324 32.6C406.777 32.7067 407.11 32.76 407.324 32.76C407.83 32.76 408.137 32.4933 408.244 31.96C408.377 31.4533 408.457 30.0133 408.484 27.64L408.524 12.2C408.497 10.9733 408.15 10.36 407.484 10.36C407.297 10.36 407.004 10.4133 406.604 10.52C406.23 10.6 405.937 10.64 405.724 10.64C404.737 10.64 404.244 10.2 404.244 9.32C404.244 8.46667 404.83 8.04 406.004 8.04C406.297 8.04 406.617 8.05333 406.964 8.08C407.63 8.13333 408.124 8.16 408.444 8.16C408.684 8.16 409.03 8.14667 409.484 8.12C409.937 8.06667 410.27 8.04 410.484 8.04C411.15 8.04 411.484 8.41333 411.484 9.16ZM412.084 14.04C411.844 15.08 411.71 16.3467 411.684 17.84C411.684 17.9467 411.67 18.1467 411.644 18.44C411.644 18.68 411.644 18.8667 411.644 19C411.644 20.7867 411.79 22.0933 412.084 22.92C412.377 23.72 412.95 24.44 413.804 25.08C414.684 25.72 415.764 26.04 417.044 26.04C418.964 26.04 420.444 25.3467 421.484 23.96C422.55 22.5467 423.084 20.5467 423.084 17.96C423.084 12.6267 421.19 9.96 417.404 9.96C416.124 9.96 414.977 10.3467 413.964 11.12C412.977 11.8933 412.35 12.8667 412.084 14.04ZM435.428 9.16V10.24C436.815 8.29333 438.668 7.32 440.988 7.32C442.855 7.32 444.361 7.85333 445.508 8.92C446.681 9.96 447.268 11.3067 447.268 12.96C447.268 14.1333 446.975 15.0933 446.388 15.84C445.801 16.56 445.028 16.92 444.068 16.92C443.455 16.92 442.935 16.7333 442.508 16.36C442.081 15.9867 441.868 15.5333 441.868 15C441.868 14.5733 442.028 14.2 442.348 13.88C442.668 13.5333 443.041 13.36 443.468 13.36C443.548 13.36 443.721 13.4 443.988 13.48C444.148 13.16 444.228 12.8667 444.228 12.6C444.228 11.8267 443.881 11.1733 443.188 10.64C442.521 10.1067 441.681 9.84 440.668 9.84C438.588 9.84 437.201 10.7733 436.508 12.64C436.081 13.7867 435.868 15.52 435.868 17.84V20.48C435.868 22.2667 435.881 23.2667 435.908 23.48C436.041 25 436.455 25.76 437.148 25.76C437.495 25.76 437.855 25.7067 438.228 25.6C438.521 25.52 438.775 25.48 438.988 25.48C439.841 25.48 440.268 25.9067 440.268 26.76C440.268 27.6933 439.721 28.16 438.628 28.16H438.468C438.068 28.16 437.455 28.1067 436.628 28C435.828 27.92 435.228 27.88 434.828 27.88C433.761 27.88 432.921 27.9067 432.308 27.96L430.068 28.16C428.975 28.16 428.428 27.6933 428.428 26.76C428.428 25.9333 428.935 25.52 429.948 25.52C430.215 25.52 430.415 25.5333 430.548 25.56L431.148 25.68C431.415 25.7333 431.601 25.76 431.708 25.76C432.375 25.76 432.735 25.1467 432.788 23.92L432.868 21.88L432.748 12.8C432.668 11.2267 432.268 10.44 431.548 10.44C431.335 10.44 431.041 10.48 430.668 10.56C430.295 10.64 430.001 10.68 429.788 10.68C428.908 10.68 428.468 10.2533 428.468 9.4C428.468 8.46667 429.041 8 430.188 8C430.455 8 430.855 8.04 431.388 8.12C431.921 8.17333 432.321 8.2 432.588 8.2C432.801 8.2 433.148 8.17333 433.628 8.12C433.841 8.06667 434.095 8.04 434.388 8.04C435.081 8.04 435.428 8.41333 435.428 9.16ZM458.237 28.68C455.437 28.68 453.197 27.72 451.517 25.8C449.837 23.8533 448.997 21.2533 448.997 18C448.997 14.7467 449.837 12.16 451.517 10.24C453.223 8.29333 455.503 7.32 458.357 7.32C461.263 7.32 463.557 8.26667 465.237 10.16C466.917 12.0533 467.757 14.6267 467.757 17.88C467.757 21.1333 466.89 23.7467 465.157 25.72C463.423 27.6933 461.117 28.68 458.237 28.68ZM458.437 9.96C456.57 9.96 455.103 10.6133 454.037 11.92C452.97 13.2267 452.383 15.08 452.277 17.48C452.277 17.48 452.277 17.6533 452.277 18C452.277 20.5067 452.797 22.48 453.837 23.92C454.903 25.3333 456.383 26.04 458.277 26.04C460.223 26.04 461.743 25.3333 462.837 23.92C463.957 22.48 464.517 20.4933 464.517 17.96C464.517 12.6267 462.49 9.96 458.437 9.96ZM480.353 7.32C481.046 7.32 481.833 7.42667 482.713 7.64C482.846 5.02667 484.366 3.72 487.273 3.72C488.499 3.72 489.526 4.04 490.353 4.68C491.179 5.32 491.593 6.13333 491.593 7.12C491.593 7.76 491.379 8.30667 490.953 8.76C490.553 9.21333 490.073 9.44 489.512 9.44C489.086 9.44 488.713 9.29333 488.393 9C488.073 8.70667 487.913 8.36 487.913 7.96C487.913 7.53333 488.206 7.09333 488.793 6.64C488.366 6.10667 487.819 5.84 487.153 5.84C485.739 5.84 485.019 6.72 484.993 8.48C487.019 9.84 488.033 11.6667 488.033 13.96C488.033 15.8 487.339 17.3333 485.953 18.56C484.566 19.7867 482.833 20.4 480.753 20.4C479.286 20.4 477.766 20.0533 476.193 19.36C475.766 19.1733 475.406 19.08 475.113 19.08C474.739 19.08 474.406 19.2533 474.113 19.6C473.819 19.92 473.673 20.3067 473.673 20.76C473.673 22.1467 475.073 22.84 477.873 22.84H478.113C478.326 22.84 478.566 22.8267 478.833 22.8C479.099 22.8 479.259 22.8 479.312 22.8C481.846 22.8 483.899 23.04 485.473 23.52C486.939 23.9733 488.099 24.68 488.953 25.64C489.806 26.6 490.233 27.68 490.233 28.88C490.233 30.8267 489.326 32.36 487.513 33.48C485.726 34.6267 483.299 35.2 480.233 35.2C477.166 35.2 474.753 34.6667 472.993 33.6C471.259 32.5333 470.393 31.0667 470.393 29.2C470.393 27.04 471.606 25.5067 474.033 24.6C471.873 23.7467 470.793 22.4667 470.793 20.76C470.793 18.8933 471.873 17.6133 474.033 16.92C473.339 15.9867 472.993 14.8933 472.993 13.64C472.993 11.8267 473.686 10.32 475.073 9.12C476.486 7.92 478.246 7.32 480.353 7.32ZM480.473 9.96C479.299 9.96 478.299 10.3067 477.473 11C476.646 11.6933 476.193 12.56 476.113 13.6C476.113 13.6 476.113 13.68 476.113 13.84C476.113 15.0133 476.513 15.96 477.313 16.68C478.113 17.4 479.153 17.76 480.433 17.76C481.766 17.76 482.846 17.4 483.673 16.68C484.526 15.96 484.953 15.04 484.953 13.92C484.953 12.7733 484.526 11.8267 483.673 11.08C482.819 10.3333 481.753 9.96 480.473 9.96ZM480.513 25.48C478.379 25.48 476.699 25.8 475.473 26.44C474.246 27.08 473.633 27.9467 473.633 29.04C473.633 30.1333 474.233 30.9867 475.433 31.6C476.633 32.24 478.246 32.56 480.273 32.56C482.406 32.56 484.086 32.24 485.313 31.6C486.566 30.96 487.193 30.1067 487.193 29.04C487.193 27.92 486.606 27.0533 485.433 26.44C484.259 25.8 482.619 25.48 480.513 25.48ZM499.764 9.16V10.24C501.151 8.29333 503.004 7.32 505.324 7.32C507.191 7.32 508.697 7.85333 509.844 8.92C511.017 9.96 511.604 11.3067 511.604 12.96C511.604 14.1333 511.311 15.0933 510.724 15.84C510.137 16.56 509.364 16.92 508.404 16.92C507.791 16.92 507.271 16.7333 506.844 16.36C506.417 15.9867 506.204 15.5333 506.204 15C506.204 14.5733 506.364 14.2 506.684 13.88C507.004 13.5333 507.377 13.36 507.804 13.36C507.884 13.36 508.057 13.4 508.324 13.48C508.484 13.16 508.564 12.8667 508.564 12.6C508.564 11.8267 508.217 11.1733 507.524 10.64C506.857 10.1067 506.017 9.84 505.004 9.84C502.924 9.84 501.537 10.7733 500.844 12.64C500.417 13.7867 500.204 15.52 500.204 17.84V20.48C500.204 22.2667 500.217 23.2667 500.244 23.48C500.377 25 500.791 25.76 501.484 25.76C501.831 25.76 502.191 25.7067 502.564 25.6C502.857 25.52 503.111 25.48 503.324 25.48C504.177 25.48 504.604 25.9067 504.604 26.76C504.604 27.6933 504.057 28.16 502.964 28.16H502.804C502.404 28.16 501.791 28.1067 500.964 28C500.164 27.92 499.564 27.88 499.164 27.88C498.097 27.88 497.257 27.9067 496.644 27.96L494.404 28.16C493.311 28.16 492.764 27.6933 492.764 26.76C492.764 25.9333 493.271 25.52 494.284 25.52C494.551 25.52 494.751 25.5333 494.884 25.56L495.484 25.68C495.751 25.7333 495.937 25.76 496.044 25.76C496.711 25.76 497.071 25.1467 497.124 23.92L497.204 21.88L497.084 12.8C497.004 11.2267 496.604 10.44 495.884 10.44C495.671 10.44 495.377 10.48 495.004 10.56C494.631 10.64 494.337 10.68 494.124 10.68C493.244 10.68 492.804 10.2533 492.804 9.4C492.804 8.46667 493.377 8 494.524 8C494.791 8 495.191 8.04 495.724 8.12C496.257 8.17333 496.657 8.2 496.924 8.2C497.137 8.2 497.484 8.17333 497.964 8.12C498.177 8.06667 498.431 8.04 498.724 8.04C499.417 8.04 499.764 8.41333 499.764 9.16ZM531.533 16.24C531.533 17.2533 531.466 17.88 531.333 18.12C531.199 18.3333 530.813 18.44 530.173 18.44H517.453C517.106 18.44 516.879 18.4933 516.773 18.6C516.666 18.68 516.613 18.8267 516.613 19.04C516.613 21.04 517.213 22.7067 518.413 24.04C519.613 25.3733 521.106 26.04 522.893 26.04C524.066 26.04 525.133 25.72 526.093 25.08C527.079 24.44 527.719 23.6267 528.013 22.64L528.373 21.48C528.559 20.84 528.999 20.52 529.693 20.52C530.679 20.52 531.173 21.0267 531.173 22.04C531.173 23.7733 530.293 25.32 528.533 26.68C526.773 28.0133 524.773 28.68 522.533 28.68C519.733 28.68 517.506 27.7467 515.853 25.88C514.199 23.9867 513.373 21.4533 513.373 18.28C513.373 15.0267 514.253 12.3867 516.013 10.36C517.773 8.33333 520.066 7.32 522.893 7.32C525.399 7.32 527.466 8.16 529.093 9.84C530.719 11.52 531.533 13.6533 531.533 16.24ZM517.013 15.2C517.013 15.5733 517.306 15.76 517.893 15.76H527.453C528.013 15.76 528.293 15.5733 528.293 15.2C528.293 13.7867 527.759 12.56 526.693 11.52C525.626 10.48 524.373 9.96 522.933 9.96C521.439 9.96 520.079 10.5067 518.853 11.6C517.626 12.6667 517.013 13.8667 517.013 15.2ZM542.945 7.32C544.732 7.32 546.225 7.78667 547.425 8.72V8.56C547.425 7.57333 547.852 7.08 548.705 7.08C549.585 7.08 550.025 7.50667 550.025 8.36C550.025 8.52 549.999 8.92 549.945 9.56C549.839 10.0933 549.785 10.6267 549.785 11.16C549.785 11.48 549.825 11.9467 549.905 12.56C550.012 13.1733 550.065 13.64 550.065 13.96C550.065 14.9733 549.625 15.48 548.745 15.48C547.892 15.48 547.452 15.0533 547.425 14.2L547.385 12.88C547.359 12.08 546.892 11.4 545.985 10.84C545.105 10.2533 544.065 9.96 542.865 9.96C541.639 9.96 540.612 10.28 539.785 10.92C538.959 11.5333 538.545 12.3067 538.545 13.24C538.545 14.9467 539.719 15.96 542.065 16.28L544.385 16.6C548.919 17.2133 551.185 19.0933 551.185 22.24C551.185 24.16 550.452 25.72 548.985 26.92C547.519 28.0933 545.599 28.68 543.225 28.68C541.012 28.68 539.092 28.0533 537.465 26.8C537.492 27.0667 537.505 27.32 537.505 27.56C537.505 28.52 537.052 29 536.145 29C535.159 29 534.665 28.4533 534.665 27.36C534.665 27.5467 534.745 26.8533 534.905 25.28C534.959 24.9067 534.985 24.5333 534.985 24.16C534.985 23.52 534.932 22.92 534.825 22.36C534.719 21.8 534.665 21.36 534.665 21.04C534.665 20.1067 535.092 19.64 535.945 19.64C536.505 19.64 536.852 19.7733 536.985 20.04C537.145 20.3067 537.239 21.0133 537.265 22.16C537.292 23.3067 537.892 24.24 539.065 24.96C540.239 25.68 541.732 26.04 543.545 26.04C544.852 26.04 545.932 25.7067 546.785 25.04C547.639 24.3733 548.065 23.5333 548.065 22.52C548.065 20.7067 546.625 19.6533 543.745 19.36C540.999 19.0667 538.905 18.5333 537.465 17.76C536.025 16.96 535.305 15.5733 535.305 13.6C535.305 11.7333 536.012 10.2267 537.425 9.08C538.839 7.90667 540.679 7.32 542.945 7.32ZM562.633 7.32C564.419 7.32 565.913 7.78667 567.113 8.72V8.56C567.113 7.57333 567.539 7.08 568.393 7.08C569.273 7.08 569.713 7.50667 569.713 8.36C569.713 8.52 569.686 8.92 569.633 9.56C569.526 10.0933 569.473 10.6267 569.473 11.16C569.473 11.48 569.513 11.9467 569.593 12.56C569.699 13.1733 569.753 13.64 569.753 13.96C569.753 14.9733 569.313 15.48 568.433 15.48C567.579 15.48 567.139 15.0533 567.113 14.2L567.073 12.88C567.046 12.08 566.579 11.4 565.673 10.84C564.793 10.2533 563.753 9.96 562.553 9.96C561.326 9.96 560.299 10.28 559.473 10.92C558.646 11.5333 558.233 12.3067 558.233 13.24C558.233 14.9467 559.406 15.96 561.753 16.28L564.073 16.6C568.606 17.2133 570.873 19.0933 570.873 22.24C570.873 24.16 570.139 25.72 568.673 26.92C567.206 28.0933 565.286 28.68 562.913 28.68C560.699 28.68 558.779 28.0533 557.153 26.8C557.179 27.0667 557.193 27.32 557.193 27.56C557.193 28.52 556.739 29 555.833 29C554.846 29 554.353 28.4533 554.353 27.36C554.353 27.5467 554.433 26.8533 554.593 25.28C554.646 24.9067 554.673 24.5333 554.673 24.16C554.673 23.52 554.619 22.92 554.513 22.36C554.406 21.8 554.353 21.36 554.353 21.04C554.353 20.1067 554.779 19.64 555.633 19.64C556.193 19.64 556.539 19.7733 556.673 20.04C556.833 20.3067 556.926 21.0133 556.953 22.16C556.979 23.3067 557.579 24.24 558.753 24.96C559.926 25.68 561.419 26.04 563.233 26.04C564.539 26.04 565.619 25.7067 566.473 25.04C567.326 24.3733 567.753 23.5333 567.753 22.52C567.753 20.7067 566.313 19.6533 563.433 19.36C560.686 19.0667 558.593 18.5333 557.153 17.76C555.713 16.96 554.993 15.5733 554.993 13.6C554.993 11.7333 555.699 10.2267 557.113 9.08C558.526 7.90667 560.366 7.32 562.633 7.32Z" fill="black"/>
</svg>
